# xmcd CD database file
#
# Track frame offsets:
#	150
#	21877
#	47945
#	66302
#	87537
#	110102
#	129317
#	150235
#	172557
#	193750
#	209540
#	221840
#
# Disc length: 3278 seconds
#
# Revision: 8
# Processed by: cddbd v1.5.2PL0 Copyright (c) Steve Scherf et al.
# Submitted via: CDex 1.79
#
DISCID=ac0ccc0c
DTITLE=Joe Cocker - Across From Midnight
DYEAR=1997
DGENRE=Rock
TTITLE0=Tonight
TTITLE1=Could you be loved
TTITLE2=That's all I need to know
TTITLE3=N'oubliez jamais
TTITLE4=What do I tell my heart?
TTITLE5=Wayward soul
TTITLE6=Loving you tonight
TTITLE7=Across from midnight
TTITLE8=What do you say?
TTITLE9=The last one to know
TTITLE10=That's the way her love is
TTITLE11=Need your love so bad
EXTD=YEAR: 1997
EXTT0=
EXTT1=
EXTT2=
EXTT3=
EXTT4=
EXTT5=
EXTT6=
EXTT7=
EXTT8=
EXTT9=
EXTT10=
EXTT11=
PLAYORDER=
